<svg xmlns="http://www.w3.org/2000/svg" version="1.1" xmlns:xlink="http://www.w3.org/1999/xlink" xmlns:svgjs="http://svgjs.dev/svgjs" width="2000" height="1500" viewBox="0 0 2000 1500"><rect width="2000" height="1500" fill="#000000"></rect><g transform="matrix(0.75,0,0,0.75,249.090909090909,633.7678503075717)"><svg viewBox="0 0 396 61" data-background-color="#000000" preserveAspectRatio="xMidYMid meet" height="308" width="2000" xmlns="http://www.w3.org/2000/svg" xmlns:xlink="http://www.w3.org/1999/xlink"><g id="tight-bounds" transform="matrix(1,0,0,1,0.2400000000000091,0.19333823046807197)"><svg viewBox="0 0 395.52 60.61332353906385" height="60.61332353906385" width="395.52"><g><svg viewBox="0 0 519.2158553715909 79.56967695249298" height="60.61332353906385" width="395.52"><g></g><g transform="matrix(1,0,0,1,123.69585537159094,0.19793451978231502)"><svg viewBox="0 0 395.52 79.17380791292835" height="79.17380791292835" width="395.52"><g id="textblocktransform"><svg viewBox="0 0 395.52 79.17380791292835" height="79.17380791292835" width="395.52" id="textblock"><g><svg viewBox="0 0 395.52 79.17380791292835" height="79.17380791292835" width="395.52"><g transform="matrix(1,0,0,1,0,0)"><svg width="395.52" viewBox="1.75 -33.48 169.96 34.029999999999994" height="79.17380791292835" data-palette-color="url(#4e4da974-9185-4a84-96f5-eec83d7e04e0)"></svg></g></svg></g></svg></g></svg></g><g transform="matrix(1,0,0,1,0,0.19793451978231502)"><svg viewBox="0 0 79.17380791292835 79.17380791292835" height="79.17380791292835" width="79.17380791292835"><g><svg xmlns="http://www.w3.org/2000/svg" xmlns:xlink="http://www.w3.org/1999/xlink" version="1.1" x="0" y="0" viewBox="0 0 90 90" style="enable-background:new 0 0 90 90;" xml:space="preserve" height="79.17380791292835" width="79.17380791292835" class="icon-icon-0" data-fill-palette-color="accent" id="icon-0"></svg></g></svg></g></svg></g><defs></defs><mask id="5e51d2c2-df91-469d-89f5-fb4db7c42532"><g id="SvgjsG9162"><svg viewBox="0 0 395.52 60.61332353906385" height="60.61332353906385" width="395.52"><g><svg viewBox="0 0 519.2158553715909 79.56967695249298" height="60.61332353906385" width="395.52"><g><rect width="7.139975704957646" height="79.56967695249298" x="97.86484378978082" y="0" fill="white" opacity="1" stroke-width="0" stroke="transparent" fill-opacity="1" class="rect-yte-0" rx="1%" id="SvgjsRect9161" data-palette-color="url(#4e4da974-9185-4a84-96f5-eec83d7e04e0)"></rect></g><g transform="matrix(1,0,0,1,123.69585537159094,0.19793451978231502)"><svg viewBox="0 0 395.52 79.17380791292835" height="79.17380791292835" width="395.52"><g id="SvgjsG9160"><svg viewBox="0 0 395.52 79.17380791292835" height="79.17380791292835" width="395.52" id="SvgjsSvg9159"><g><svg viewBox="0 0 395.52 79.17380791292835" height="79.17380791292835" width="395.52"><g transform="matrix(1,0,0,1,0,0)"><svg width="395.52" viewBox="1.75 -33.48 169.96 34.029999999999994" height="79.17380791292835" data-palette-color="url(#4e4da974-9185-4a84-96f5-eec83d7e04e0)"><path d="M10.93 0.55L10.93 0.55Q7.98 0.55 5.78-0.09 3.58-0.73 2.13-1.48L2.13-1.48 1.75-5.23Q3.58-4.28 5.76-3.58 7.95-2.88 10.73-2.88L10.73-2.88Q13.55-2.88 14.98-3.78 16.4-4.67 16.4-6.45L16.4-6.45 16.4-6.73Q16.4-7.88 15.86-8.63 15.33-9.38 13.93-9.95 12.53-10.53 9.95-11.1L9.95-11.1Q6.88-11.78 5.1-12.69 3.33-13.6 2.56-14.95 1.8-16.3 1.8-18.25L1.8-18.25 1.8-18.48Q1.8-21.68 4.03-23.33 6.25-24.98 10.73-24.98L10.73-24.98Q13.6-24.98 15.71-24.33 17.82-23.68 19.18-22.88L19.18-22.88 19.55-19.45Q17.93-20.4 15.83-21.03 13.73-21.65 11.1-21.65L11.1-21.65Q9.2-21.65 8.03-21.26 6.85-20.88 6.33-20.16 5.8-19.45 5.8-18.45L5.8-18.45 5.8-18.25Q5.8-17.15 6.33-16.39 6.85-15.63 8.21-15.06 9.58-14.5 12-13.98L12-13.98Q15.13-13.35 16.96-12.48 18.8-11.6 19.6-10.26 20.4-8.93 20.4-6.83L20.4-6.83 20.4-6.4Q20.4-2.95 18-1.2 15.6 0.55 10.93 0.55ZM34.75 0.55L34.75 0.55Q29.5 0.55 26.93-2.29 24.37-5.13 24.37-10.33L24.37-10.33 24.37-14.13Q24.37-19.35 26.95-22.16 29.52-24.98 34.75-24.98L34.75-24.98Q36.3-24.98 37.57-24.69 38.85-24.4 39.86-23.94 40.87-23.48 41.57-22.98L41.57-22.98 41.92-19.45Q40.75-20.35 39.14-20.98 37.52-21.6 35.35-21.6L35.35-21.6Q31.85-21.6 30.13-19.66 28.42-17.73 28.42-14.03L28.42-14.03 28.42-10.43Q28.42-6.8 30.13-4.85 31.85-2.9 35.35-2.9L35.35-2.9Q37.6-2.9 39.23-3.53 40.87-4.15 42.15-5.05L42.15-5.05 41.77-1.48Q40.67-0.73 38.9-0.09 37.12 0.55 34.75 0.55ZM50.9-14.93L50.9-14.93 49.97-18.05 50.97-18.1Q51.77-21.2 53.72-22.99 55.67-24.78 58.9-24.78L58.9-24.78Q59.7-24.78 60.33-24.65 60.97-24.53 61.47-24.35L61.47-24.35 61.72-20.43Q61.1-20.63 60.33-20.75 59.57-20.88 58.65-20.88L58.65-20.88Q55.9-20.88 53.86-19.35 51.82-17.82 50.9-14.93ZM51.1 0L47.05 0 47.05-24.4 51-24.4 50.8-17.2 51.1-16.9 51.1 0ZM69.82 0L65.77 0 65.77-24.4 69.82-24.4 69.82 0ZM67.79-28.4L67.79-28.4Q66.54-28.4 65.93-29.06 65.32-29.73 65.32-30.88L65.32-30.88 65.32-31Q65.32-32.18 65.93-32.83 66.54-33.48 67.79-33.48L67.79-33.48Q69.04-33.48 69.67-32.83 70.29-32.18 70.29-31L70.29-31 70.29-30.88Q70.29-29.7 69.67-29.05 69.04-28.4 67.79-28.4ZM88.54 0.53L88.54 0.53Q86.29 0.53 84.63-0.23 82.97-0.98 81.94-2.38 80.92-3.78 80.57-5.63L80.57-5.63 79.22-5.63 80.44-9.43Q80.57-7.23 81.48-5.76 82.39-4.3 83.92-3.58 85.44-2.85 87.37-2.85L87.37-2.85Q90.42-2.85 92.03-4.65 93.64-6.45 93.64-10L93.64-10 93.64-14.58Q93.64-18.05 92.02-19.85 90.39-21.65 87.29-21.65L87.29-21.65Q85.44-21.65 84.02-20.93 82.59-20.2 81.65-18.95 80.72-17.7 80.37-16.1L80.37-16.1 79.44-18.93 80.59-18.93Q80.97-20.6 81.93-21.96 82.89-23.33 84.57-24.14 86.24-24.95 88.72-24.95L88.72-24.95Q93.12-24.95 95.42-22.21 97.72-19.48 97.72-14.28L97.72-14.28 97.72-10.23Q97.72-4.98 95.38-2.23 93.04 0.53 88.54 0.53ZM80.57 0L76.52 0 76.52-33.13 80.54-33.13 80.54-25.18 80.42-18.18 80.44-17.4 80.44-7.2 80.39-5.9 80.57 0ZM115.39 0.53L115.39 0.53Q113.14 0.53 111.48-0.23 109.81-0.98 108.79-2.38 107.76-3.78 107.41-5.63L107.41-5.63 106.06-5.63 107.29-9.43Q107.41-7.23 108.33-5.76 109.24-4.3 110.76-3.58 112.29-2.85 114.21-2.85L114.21-2.85Q117.26-2.85 118.88-4.65 120.49-6.45 120.49-10L120.49-10 120.49-14.58Q120.49-18.05 118.86-19.85 117.24-21.65 114.14-21.65L114.14-21.65Q112.29-21.65 110.86-20.93 109.44-20.2 108.5-18.95 107.56-17.7 107.21-16.1L107.21-16.1 106.29-18.93 107.44-18.93Q107.81-20.6 108.78-21.96 109.74-23.33 111.41-24.14 113.09-24.95 115.56-24.95L115.56-24.95Q119.96-24.95 122.26-22.21 124.56-19.48 124.56-14.28L124.56-14.28 124.56-10.23Q124.56-4.98 122.23-2.23 119.89 0.53 115.39 0.53ZM107.41 0L103.36 0 103.36-33.13 107.39-33.13 107.39-25.18 107.26-18.18 107.29-17.4 107.29-7.2 107.24-5.9 107.41 0ZM134.36 0L130.34 0 130.34-33.13 134.36-33.13 134.36 0ZM145.21 0L141.16 0 141.16-24.4 145.21-24.4 145.21 0ZM143.18-28.4L143.18-28.4Q141.93-28.4 141.32-29.06 140.71-29.73 140.71-30.88L140.71-30.88 140.71-31Q140.71-32.18 141.32-32.83 141.93-33.48 143.18-33.48L143.18-33.48Q144.43-33.48 145.06-32.83 145.68-32.18 145.68-31L145.68-31 145.68-30.88Q145.68-29.7 145.06-29.05 144.43-28.4 143.18-28.4ZM154.31 0L149.88 0 157.88-13.28 157.88-12.13 150.03-24.4 154.48-24.4 160.63-14.48 160.98-14.48 167.11-24.4 171.56-24.4 163.71-12.13 163.71-13.28 171.71 0 167.28 0 160.98-10.6 160.63-10.6 154.31 0Z" opacity="1" transform="matrix(1,0,0,1,0,0)" fill="white" class="wordmark-text-0" id="SvgjsPath9158"></path></svg></g></svg></g></svg></g></svg></g><g transform="matrix(1,0,0,1,0,0.19793451978231502)"><svg viewBox="0 0 79.17380791292835 79.17380791292835" height="79.17380791292835" width="79.17380791292835"><g><svg xmlns="http://www.w3.org/2000/svg" xmlns:xlink="http://www.w3.org/1999/xlink" version="1.1" x="0" y="0" viewBox="0 0 90 90" style="enable-background:new 0 0 90 90;" xml:space="preserve" height="79.17380791292835" width="79.17380791292835" class="icon-icon-0" data-fill-palette-color="accent" id="SvgjsSvg9157"><path d="M33.9 33.7C33.3 32.1 32.5 31.3 32.5 31.3 32 30.8 31.1 30.8 30.6 31.3S30.1 32.7 30.6 33.2C30.7 33.3 32.2 34.9 31.9 38.7 31.8 39.4 32.4 40.1 33.1 40.2H33.2C33.9 40.2 34.5 39.7 34.5 39 34.6 38.1 34.5 37.3 34.5 36.5 37.5 36.6 38.9 40.2 39 40.4 39.2 40.9 39.7 41.3 40.3 41.3 40.5 41.3 40.6 41.3 40.8 41.2 41.5 40.9 41.9 40.2 41.6 39.5 40.7 37.1 38.2 33.3 33.9 33.7" fill="black"></path><path d="M29.6 45.7C30 45.1 29.8 44.2 29.2 43.8S27.7 43.6 27.3 44.2C26.1 46.1 24.8 49.9 27.6 52.1 27.8 52.3 28.2 52.4 28.5 52.4 28.9 52.4 29.3 52.2 29.5 51.9 30 51.3 29.9 50.5 29.3 50 27.7 48.8 29.6 45.8 29.6 45.7" fill="black"></path><path d="M56.4 45.7C55.7 45.8 55.1 46.5 55.2 47.2 55.4 48.5 55.1 49.5 54.5 50.2 53.4 51.4 51.3 51.5 51.3 51.5 50.6 51.5 50 52.1 50 52.8S50.6 54.2 51.3 54.2C51.5 54.2 54.6 54.2 56.5 52 57.7 50.7 58.1 49 57.9 46.9 57.8 46.2 57.1 45.6 56.4 45.7" fill="black"></path><path d="M68 33.7C68.6 29.3 67.6 25.9 65.2 23.8 61.3 20.3 54.8 21.3 52.4 21.8 49.9 18.5 46.8 16.5 43.1 16 36.5 15.1 30.2 19.4 28.2 20.9 24.4 19.7 21.2 19.9 18.9 21.7 15.4 24.2 14.8 29 14.7 30.9 11.5 33.1 9.6 36.8 9.6 40.8 9.6 45.2 12 49.2 15.8 51.3L17.4 52.2C20.5 57.2 24.1 59.8 28.1 60 33.1 60.2 37.2 56.6 39.3 54.4 41.7 59.2 44.2 61.9 47.2 62.8 48 63 48.8 63.2 49.6 63.2 50.5 63.2 51.4 63.1 52.3 62.8 53.7 65.6 57.8 72.6 64.8 72.6 65.5 72.6 66.2 72.5 67 72.4 67.3 72.3 67.6 72.2 67.8 71.9 68.1 71.5 71 67.7 70.5 64.2 70.3 63.1 69.9 62.2 69.1 61.4 69.8 59.4 69.4 57.4 68.9 56.2 72.4 54.6 74.5 52.4 75.3 49.7 77.1 43.1 70 35.7 68 33.7M66.4 60.6C66 61.7 65 62.6 63.4 63.2 62.7 63.5 62.4 64.3 62.6 65 62.8 65.5 63.3 65.9 63.9 65.9 64.1 65.9 64.2 65.9 64.4 65.8 65.6 65.3 66.6 64.7 67.4 63.9 67.5 64.1 67.6 64.4 67.6 64.6 67.9 66.3 66.6 68.7 65.8 69.8 59.8 70.6 56 64.5 54.6 61.9 56.5 61.1 58.4 59.9 60.4 58.7 62.6 58.3 64.5 57.9 66.2 57.3 66.5 58.1 66.8 59.4 66.4 60.6M72.6 49C71.8 51.7 68.9 53.7 64 55.1 64.9 53.7 65.2 52.5 65.2 52.4 65.4 51.7 65 50.9 64.3 50.7S62.8 50.9 62.6 51.6C62.6 51.6 61.7 54.6 59.2 56.1 54.8 58.9 50.9 61.1 47.8 60.1 45.4 59.4 43.2 56.7 41 51.9L42.9 49.4C44.8 49.4 46.9 48.7 48.8 46.9 49.3 46.4 49.4 45.5 48.9 45S47.5 44.4 47 44.9C43.5 48.2 39.6 45.9 39.4 45.8 38.8 45.4 37.9 45.6 37.5 46.2S37.3 47.7 37.9 48.1C38.4 48.4 39 48.7 39.8 49L37.6 51.9C36.1 53.6 32.2 57.5 27.9 57.2 24.8 57.1 21.9 54.8 19.3 50.5 18.8 48.9 18.1 46.3 18 45.7 17.9 45 17.2 44.5 16.4 44.6 15.7 44.7 15.2 45.4 15.3 46.2 15.4 46.6 15.6 47.4 15.8 48.3 13.4 46.6 12 43.8 12 40.8 12 38.1 13.2 35.6 15.2 33.8 15.9 35 17 36.2 18.7 36.7 18.3 37.5 18 38.4 18 39.5 18 40.2 18.6 40.9 19.4 40.9S20.8 40.3 20.8 39.5C20.8 36.8 23.1 36.2 23.4 36.2 24.1 36.1 24.6 35.4 24.5 34.6 24.4 33.9 23.7 33.4 22.9 33.5 22.3 33.6 21.6 33.9 20.9 34.3 20.8 34.3 20.7 34.2 20.5 34.2 17.9 34.2 17.3 32 17.1 31.5 17.1 30.7 17.3 26 20.2 23.9 22 22.6 24.5 22.6 27.8 23.7 27.9 23.7 29.4 24.2 30.8 26.5 31.1 26.9 31.5 27.1 32 27.1 32.2 27.1 32.5 27 32.7 26.9 33.3 26.5 33.5 25.7 33.2 25 32.4 23.7 31.5 22.8 30.7 22.2 33.1 20.6 37.8 17.9 42.5 18.6 45.1 18.9 47.3 20.2 49.3 22.5 48.1 22.9 47 23.5 46.3 24.3 45 24.1 43.6 24.3 42.7 24.5 42 24.7 41.5 25.4 41.7 26.1S42.6 27.3 43.3 27.1C43.3 27.1 44.8 26.7 46.2 27 46.3 27.1 46.4 27.1 46.6 27.2H46.8C47.5 27.4 48.1 27.9 48.5 28.7 48.7 29.2 49.2 29.5 49.8 29.5 50 29.5 50.1 29.5 50.3 29.4 51 29.1 51.3 28.3 51.1 27.6 50.7 26.6 50.1 25.9 49.3 25.3 50 25 50.9 24.7 51.9 24.4H52S52.3 24.3 52.7 24.2H52.9C55 23.8 60.3 23 63.3 25.6 65.1 27.2 65.7 29.9 65.1 33.8 65.1 34 64.4 36.2 60.6 38.1 59.9 38.4 59.7 39.2 60 39.9 60.2 40.4 60.7 40.7 61.2 40.7 61.4 40.7 61.6 40.7 61.8 40.6 64.6 39.2 66.1 37.6 66.9 36.4 69.7 39.4 73.8 44.8 72.6 49" fill="black"></path><path d="M45 90C20.2 90 0 69.8 0 45S20.2 0 45 0 90 20.2 90 45 69.8 90 45 90M45 2.7C21.7 2.7 2.7 21.7 2.7 45S21.7 87.3 45 87.3 87.3 68.3 87.3 45 68.3 2.7 45 2.7" fill="black"></path><path d="M47 83.5C38.3 83.5 29.7 80.7 22.5 75.2 21.9 74.7 21.8 73.9 22.2 73.3S23.5 72.6 24.1 73C33.6 80.2 45.5 82.5 57 79.4 57.7 79.2 58.5 79.6 58.7 80.3S58.5 81.8 57.8 82C54.1 83 50.5 83.5 47 83.5" fill="black"></path><path d="M61.4 13.1C61.2 13.1 61 13 60.8 12.9 57.3 11 53.6 9.7 49.7 8.9 49 8.8 48.5 8.1 48.6 7.3 48.7 6.6 49.4 6.1 50.2 6.2 54.3 7 58.3 8.4 62.1 10.4 62.8 10.8 63 11.6 62.6 12.2 62.4 12.9 61.9 13.1 61.4 13.1" fill="black"></path><ellipse transform="matrix(0.9887 -0.1499 0.1499 0.9887 -1.3742 9.9907)" cx="65.6" cy="14.1" rx="1.8" ry="1.8" fill="black"></ellipse><path d="M45 11.5C44.8 11.5 44.5 11.4 44.4 11.2 43.2 10 41.1 10 39.8 11.2 39.4 11.6 38.9 11.6 38.5 11.2 38.3 11 38.2 10.8 38.2 10.6S38.3 10.1 38.5 10C39.1 9.4 39.4 8.6 39.4 7.7S39.1 6 38.5 5.4C38.3 5.2 38.2 5 38.2 4.8S38.3 4.3 38.5 4.2C38.9 3.8 39.4 3.8 39.8 4.2 41.1 5.5 43.1 5.5 44.4 4.2 44.8 3.8 45.3 3.8 45.7 4.2 45.9 4.4 46 4.6 46 4.8S45.9 5.3 45.7 5.4C44.4 6.7 44.4 8.7 45.7 10 45.9 10.2 46 10.4 46 10.6S45.9 11.1 45.7 11.2C45.5 11.4 45.2 11.5 45 11.5M42.1 8.5C42.4 8.5 42.7 8.5 43 8.6 42.9 8 42.9 7.4 43 6.8 42.4 6.9 41.8 6.9 41.2 6.8 41.3 7.1 41.3 7.4 41.3 7.7S41.3 8.3 41.2 8.6C41.5 8.5 41.8 8.5 42.1 8.5" fill="black"></path><path d="M30.2 71.8C30 71.8 29.7 71.7 29.6 71.5 28.3 70.2 26.3 70.2 25 71.5 24.6 71.9 24.1 71.9 23.7 71.5 23.5 71.3 23.4 71.1 23.4 70.9S23.5 70.4 23.7 70.3C25 69 25 67 23.7 65.7 23.5 65.5 23.4 65.3 23.4 65.1S23.5 64.6 23.7 64.5C24.1 64.1 24.6 64.1 25 64.5 26.3 65.8 28.3 65.8 29.6 64.5 30 64.1 30.5 64.1 30.9 64.5 31.1 64.7 31.2 64.9 31.2 65.1S31.1 65.6 30.9 65.7C29.6 67 29.6 69 30.9 70.3 31.1 70.5 31.2 70.7 31.2 70.9S31.1 71.4 30.9 71.5 30.5 71.8 30.2 71.8M26.4 67.1C26.5 67.7 26.5 68.3 26.4 68.9 27 68.8 27.6 68.8 28.2 68.9 28.1 68.3 28.1 67.7 28.2 67.1 27.6 67.2 27 67.2 26.4 67.1" fill="black"></path><path d="M19 73.6C18.8 73.6 18.5 73.5 18.4 73.3 17.9 72.8 17.2 72.8 16.8 73.3 16.4 73.7 15.9 73.7 15.5 73.3 15.3 73.1 15.2 72.9 15.2 72.7S15.3 72.2 15.5 72.1C16 71.6 16 70.9 15.5 70.5 15.3 70.3 15.2 70.1 15.2 69.9S15.3 69.4 15.5 69.3C15.9 68.9 16.4 68.9 16.8 69.3 17.3 69.8 18 69.8 18.4 69.3 18.8 68.9 19.3 68.9 19.7 69.3 19.9 69.5 20 69.7 20 69.9S19.9 70.4 19.7 70.5C19.2 71 19.2 71.7 19.7 72.1 19.9 72.3 20 72.5 20 72.7S19.9 73.2 19.7 73.3C19.5 73.5 19.2 73.6 19 73.6" fill="black"></path><path d="M65.4 78.8C65.2 78.8 64.9 78.7 64.8 78.5 64.3 78 63.6 78 63.2 78.5 62.8 78.9 62.3 78.9 61.9 78.5 61.7 78.3 61.6 78.1 61.6 77.9S61.7 77.4 61.9 77.3C62.1 77.1 62.2 76.8 62.2 76.5S62.1 75.9 61.9 75.7 61.6 75.3 61.6 75.1 61.7 74.6 61.9 74.5C62.3 74.1 62.8 74.1 63.2 74.5 63.7 74.9 64.4 75 64.8 74.5 65.2 74.1 65.7 74.1 66.1 74.5 66.3 74.7 66.4 74.9 66.4 75.1S66.3 75.6 66.1 75.7C65.9 75.9 65.8 76.2 65.8 76.5S65.9 77.1 66.1 77.3 66.4 77.7 66.4 77.9 66.3 78.4 66.1 78.5 65.6 78.8 65.4 78.8" fill="black"></path><path d="M21 65.4C20.8 65.4 20.5 65.3 20.4 65.1 19.9 64.6 19.2 64.6 18.8 65.1 18.4 65.5 17.9 65.5 17.5 65.1 17.3 64.9 17.2 64.7 17.2 64.5S17.3 64 17.5 63.9C17.7 63.7 17.8 63.4 17.8 63.1S17.7 62.5 17.5 62.3 17.2 61.9 17.2 61.7 17.3 61.2 17.5 61.1C17.9 60.7 18.4 60.7 18.8 61.1S20 61.5 20.4 61.1 21.3 60.7 21.7 61.1C21.9 61.3 22 61.5 22 61.7S21.9 62.2 21.7 62.3C21.2 62.8 21.2 63.5 21.7 63.9 21.9 64.1 22 64.3 22 64.5S21.9 65 21.7 65.1 21.3 65.4 21 65.4" fill="black"></path><path d="M54.4 76.5C54.2 76.5 53.9 76.4 53.8 76.2 53.4 75.8 52.6 75.8 52.2 76.2S51.3 76.6 50.9 76.2C50.7 76 50.6 75.8 50.6 75.6S50.7 75.1 50.9 75C51.4 74.5 51.4 73.8 50.9 73.4 50.7 73.2 50.6 73 50.6 72.8S50.7 72.3 50.9 72.2C51.3 71.8 51.8 71.8 52.2 72.2 52.7 72.7 53.4 72.7 53.8 72.2 54.2 71.8 54.7 71.8 55.1 72.2 55.3 72.4 55.4 72.6 55.4 72.8S55.3 73.3 55.1 73.4C54.6 73.9 54.6 74.6 55.1 75 55.3 75.2 55.4 75.4 55.4 75.6S55.3 76.1 55.1 76.2C54.8 76.4 54.6 76.5 54.4 76.5" fill="black"></path></svg></g></svg></g></svg></g><defs><mask></mask></defs></svg><rect width="395.52" height="60.61332353906385" fill="black" stroke="none" visibility="hidden"></rect></g></mask><linearGradient x1="0.054" x2="0.941" y1="0.5" y2="0.5" id="4e4da974-9185-4a84-96f5-eec83d7e04e0"><stop stop-color="#8c8c8c" offset="0"></stop><stop stop-color="#e3e4e5" offset="0.498"></stop><stop stop-color="#8c8c8c" offset="1"></stop></linearGradient><rect width="395.52" height="60.61332353906385" fill="url(#4e4da974-9185-4a84-96f5-eec83d7e04e0)" mask="url(#5e51d2c2-df91-469d-89f5-fb4db7c42532)" data-fill-palette-color="primary"></rect><mask id="cacfda56-cad1-4d5f-a1cd-bd1b523737cb"><g id="SvgjsG9183"><svg viewBox="0 0 395.52 60.61332353906385" height="60.61332353906385" width="395.52"><g><svg viewBox="0 0 519.2158553715909 79.56967695249298" height="60.61332353906385" width="395.52"><g></g><g transform="matrix(1,0,0,1,123.69585537159094,0.19793451978231502)"><svg viewBox="0 0 395.52 79.17380791292835" height="79.17380791292835" width="395.52"><g id="SvgjsG9182"><svg viewBox="0 0 395.52 79.17380791292835" height="79.17380791292835" width="395.52" id="SvgjsSvg9181"><g><svg viewBox="0 0 395.52 79.17380791292835" height="79.17380791292835" width="395.52"><g transform="matrix(1,0,0,1,0,0)"><svg width="395.52" viewBox="1.75 -33.48 169.96 34.029999999999994" height="79.17380791292835" data-palette-color="url(#4e4da974-9185-4a84-96f5-eec83d7e04e0)"></svg></g></svg></g></svg></g></svg></g><g transform="matrix(1,0,0,1,0,0.19793451978231502)"><svg viewBox="0 0 79.17380791292835 79.17380791292835" height="79.17380791292835" width="79.17380791292835"><g><svg xmlns="http://www.w3.org/2000/svg" xmlns:xlink="http://www.w3.org/1999/xlink" version="1.1" x="0" y="0" viewBox="0 0 90 90" style="enable-background:new 0 0 90 90;" xml:space="preserve" height="79.17380791292835" width="79.17380791292835" class="icon-icon-0" data-fill-palette-color="accent" id="SvgjsSvg9180"><path d="M33.9 33.7C33.3 32.1 32.5 31.3 32.5 31.3 32 30.8 31.1 30.8 30.6 31.3S30.1 32.7 30.6 33.2C30.7 33.3 32.2 34.9 31.9 38.7 31.8 39.4 32.4 40.1 33.1 40.2H33.2C33.9 40.2 34.5 39.7 34.5 39 34.6 38.1 34.5 37.3 34.5 36.5 37.5 36.6 38.9 40.2 39 40.4 39.2 40.9 39.7 41.3 40.3 41.3 40.5 41.3 40.6 41.3 40.8 41.2 41.5 40.9 41.9 40.2 41.6 39.5 40.7 37.1 38.2 33.3 33.9 33.7" fill="white"></path><path d="M29.6 45.7C30 45.1 29.8 44.2 29.2 43.8S27.7 43.6 27.3 44.2C26.1 46.1 24.8 49.9 27.6 52.1 27.8 52.3 28.2 52.4 28.5 52.4 28.9 52.4 29.3 52.2 29.5 51.9 30 51.3 29.9 50.5 29.3 50 27.7 48.8 29.6 45.8 29.6 45.7" fill="white"></path><path d="M56.4 45.7C55.7 45.8 55.1 46.5 55.2 47.2 55.4 48.5 55.1 49.5 54.5 50.2 53.4 51.4 51.3 51.5 51.3 51.5 50.6 51.5 50 52.1 50 52.8S50.6 54.2 51.3 54.2C51.5 54.2 54.6 54.2 56.5 52 57.7 50.7 58.1 49 57.9 46.9 57.8 46.2 57.1 45.6 56.4 45.7" fill="white"></path><path d="M68 33.7C68.6 29.3 67.6 25.9 65.2 23.8 61.3 20.3 54.8 21.3 52.4 21.8 49.9 18.5 46.8 16.5 43.1 16 36.5 15.1 30.2 19.4 28.2 20.9 24.4 19.7 21.2 19.9 18.9 21.7 15.4 24.2 14.8 29 14.7 30.9 11.5 33.1 9.6 36.8 9.6 40.8 9.6 45.2 12 49.2 15.8 51.3L17.4 52.2C20.5 57.2 24.1 59.8 28.1 60 33.1 60.2 37.2 56.6 39.3 54.4 41.7 59.2 44.2 61.9 47.2 62.8 48 63 48.8 63.2 49.6 63.2 50.5 63.2 51.4 63.1 52.3 62.8 53.7 65.6 57.8 72.6 64.8 72.6 65.5 72.6 66.2 72.5 67 72.4 67.3 72.3 67.6 72.2 67.8 71.9 68.1 71.5 71 67.7 70.5 64.2 70.3 63.1 69.9 62.2 69.1 61.4 69.8 59.4 69.4 57.4 68.9 56.2 72.4 54.6 74.5 52.4 75.3 49.7 77.1 43.1 70 35.7 68 33.7M66.4 60.6C66 61.7 65 62.6 63.4 63.2 62.7 63.5 62.4 64.3 62.6 65 62.8 65.5 63.3 65.9 63.9 65.9 64.1 65.9 64.2 65.9 64.4 65.8 65.6 65.3 66.6 64.7 67.4 63.9 67.5 64.1 67.6 64.4 67.6 64.6 67.9 66.3 66.6 68.7 65.8 69.8 59.8 70.6 56 64.5 54.6 61.9 56.5 61.1 58.4 59.9 60.4 58.7 62.6 58.3 64.5 57.9 66.2 57.3 66.5 58.1 66.8 59.4 66.4 60.6M72.6 49C71.8 51.7 68.9 53.7 64 55.1 64.9 53.7 65.2 52.5 65.2 52.4 65.4 51.7 65 50.9 64.3 50.7S62.8 50.9 62.6 51.6C62.6 51.6 61.7 54.6 59.2 56.1 54.8 58.9 50.9 61.1 47.8 60.1 45.4 59.4 43.2 56.7 41 51.9L42.9 49.4C44.8 49.4 46.9 48.7 48.8 46.9 49.3 46.4 49.4 45.5 48.9 45S47.5 44.4 47 44.9C43.5 48.2 39.6 45.9 39.4 45.8 38.8 45.4 37.9 45.6 37.5 46.2S37.3 47.7 37.9 48.1C38.4 48.4 39 48.7 39.8 49L37.6 51.9C36.1 53.6 32.2 57.5 27.9 57.2 24.8 57.1 21.9 54.8 19.3 50.5 18.8 48.9 18.1 46.3 18 45.7 17.9 45 17.2 44.5 16.4 44.6 15.7 44.7 15.2 45.4 15.3 46.2 15.4 46.6 15.6 47.4 15.8 48.3 13.4 46.6 12 43.8 12 40.8 12 38.1 13.2 35.6 15.2 33.8 15.9 35 17 36.2 18.7 36.7 18.3 37.5 18 38.4 18 39.5 18 40.2 18.6 40.9 19.4 40.9S20.8 40.3 20.8 39.5C20.8 36.8 23.1 36.2 23.4 36.2 24.1 36.1 24.6 35.4 24.5 34.6 24.4 33.9 23.7 33.4 22.9 33.5 22.3 33.6 21.6 33.9 20.9 34.3 20.8 34.3 20.7 34.2 20.5 34.2 17.9 34.2 17.3 32 17.1 31.5 17.1 30.7 17.3 26 20.2 23.9 22 22.6 24.5 22.6 27.8 23.7 27.9 23.7 29.4 24.2 30.8 26.5 31.1 26.9 31.5 27.1 32 27.1 32.2 27.1 32.5 27 32.7 26.9 33.3 26.5 33.5 25.7 33.2 25 32.4 23.7 31.5 22.8 30.7 22.2 33.1 20.6 37.8 17.9 42.5 18.6 45.1 18.9 47.3 20.2 49.3 22.5 48.1 22.9 47 23.5 46.3 24.3 45 24.1 43.6 24.3 42.7 24.5 42 24.7 41.5 25.4 41.7 26.1S42.6 27.3 43.3 27.1C43.3 27.1 44.8 26.7 46.2 27 46.3 27.1 46.4 27.1 46.6 27.2H46.8C47.5 27.4 48.1 27.9 48.5 28.7 48.7 29.2 49.2 29.5 49.8 29.5 50 29.5 50.1 29.5 50.3 29.4 51 29.1 51.3 28.3 51.1 27.6 50.7 26.6 50.1 25.9 49.3 25.3 50 25 50.9 24.7 51.9 24.4H52S52.3 24.3 52.7 24.2H52.9C55 23.8 60.3 23 63.3 25.6 65.1 27.2 65.7 29.9 65.1 33.8 65.1 34 64.4 36.2 60.6 38.1 59.9 38.4 59.7 39.2 60 39.9 60.2 40.4 60.7 40.7 61.2 40.7 61.4 40.7 61.6 40.7 61.8 40.6 64.6 39.2 66.1 37.6 66.9 36.4 69.7 39.4 73.8 44.8 72.6 49" fill="white"></path><path d="M45 90C20.2 90 0 69.8 0 45S20.2 0 45 0 90 20.2 90 45 69.8 90 45 90M45 2.7C21.7 2.7 2.7 21.7 2.7 45S21.7 87.3 45 87.3 87.3 68.3 87.3 45 68.3 2.7 45 2.7" fill="white"></path><path d="M47 83.5C38.3 83.5 29.7 80.7 22.5 75.2 21.9 74.7 21.8 73.9 22.2 73.3S23.5 72.6 24.1 73C33.6 80.2 45.5 82.5 57 79.4 57.7 79.2 58.5 79.6 58.7 80.3S58.5 81.8 57.8 82C54.1 83 50.5 83.5 47 83.5" fill="white"></path><path d="M61.4 13.1C61.2 13.1 61 13 60.8 12.9 57.3 11 53.6 9.7 49.7 8.9 49 8.8 48.5 8.1 48.6 7.3 48.7 6.6 49.4 6.1 50.2 6.2 54.3 7 58.3 8.4 62.1 10.4 62.8 10.8 63 11.6 62.6 12.2 62.4 12.9 61.9 13.1 61.4 13.1" fill="white"></path><ellipse transform="matrix(0.9887 -0.1499 0.1499 0.9887 -1.3742 9.9907)" cx="65.6" cy="14.1" rx="1.8" ry="1.8" fill="white"></ellipse><path d="M45 11.5C44.8 11.5 44.5 11.4 44.4 11.2 43.2 10 41.1 10 39.8 11.2 39.4 11.6 38.9 11.6 38.5 11.2 38.3 11 38.2 10.8 38.2 10.6S38.3 10.1 38.5 10C39.1 9.4 39.4 8.6 39.4 7.7S39.1 6 38.5 5.4C38.3 5.2 38.2 5 38.2 4.8S38.3 4.3 38.5 4.2C38.9 3.8 39.4 3.8 39.8 4.2 41.1 5.5 43.1 5.5 44.4 4.2 44.8 3.8 45.3 3.8 45.7 4.2 45.9 4.4 46 4.6 46 4.8S45.9 5.3 45.7 5.4C44.4 6.7 44.4 8.7 45.7 10 45.9 10.2 46 10.4 46 10.6S45.9 11.1 45.7 11.2C45.5 11.4 45.2 11.5 45 11.5M42.1 8.5C42.4 8.5 42.7 8.5 43 8.6 42.9 8 42.9 7.4 43 6.8 42.4 6.9 41.8 6.9 41.2 6.8 41.3 7.1 41.3 7.4 41.3 7.7S41.3 8.3 41.2 8.6C41.5 8.5 41.8 8.5 42.1 8.5" fill="white"></path><path d="M30.2 71.8C30 71.8 29.7 71.7 29.6 71.5 28.3 70.2 26.3 70.2 25 71.5 24.6 71.9 24.1 71.9 23.7 71.5 23.5 71.3 23.4 71.1 23.4 70.9S23.5 70.4 23.7 70.3C25 69 25 67 23.7 65.7 23.5 65.5 23.4 65.3 23.4 65.1S23.5 64.6 23.7 64.5C24.1 64.1 24.6 64.1 25 64.5 26.3 65.8 28.3 65.8 29.6 64.5 30 64.1 30.5 64.1 30.9 64.5 31.1 64.7 31.2 64.9 31.2 65.1S31.1 65.6 30.9 65.7C29.6 67 29.6 69 30.9 70.3 31.1 70.5 31.2 70.7 31.2 70.9S31.1 71.4 30.9 71.5 30.5 71.8 30.2 71.8M26.4 67.1C26.5 67.7 26.5 68.3 26.4 68.9 27 68.8 27.6 68.8 28.2 68.9 28.1 68.3 28.1 67.7 28.2 67.1 27.6 67.2 27 67.2 26.4 67.1" fill="white"></path><path d="M19 73.6C18.8 73.6 18.5 73.5 18.4 73.3 17.9 72.8 17.2 72.8 16.8 73.3 16.4 73.7 15.9 73.7 15.5 73.3 15.3 73.1 15.2 72.9 15.2 72.7S15.3 72.2 15.5 72.1C16 71.6 16 70.9 15.5 70.5 15.3 70.3 15.2 70.1 15.2 69.9S15.3 69.4 15.5 69.3C15.9 68.9 16.4 68.9 16.8 69.3 17.3 69.8 18 69.8 18.4 69.3 18.8 68.9 19.3 68.9 19.7 69.3 19.9 69.5 20 69.7 20 69.9S19.9 70.4 19.7 70.5C19.2 71 19.2 71.7 19.7 72.1 19.9 72.3 20 72.5 20 72.7S19.9 73.2 19.7 73.3C19.5 73.5 19.2 73.6 19 73.6" fill="white"></path><path d="M65.4 78.8C65.2 78.8 64.9 78.7 64.8 78.5 64.3 78 63.6 78 63.2 78.5 62.8 78.9 62.3 78.9 61.9 78.5 61.7 78.3 61.6 78.1 61.6 77.9S61.7 77.4 61.9 77.3C62.1 77.1 62.2 76.8 62.2 76.5S62.1 75.9 61.9 75.7 61.6 75.3 61.6 75.1 61.7 74.6 61.9 74.5C62.3 74.1 62.8 74.1 63.2 74.5 63.7 74.9 64.4 75 64.8 74.5 65.2 74.1 65.7 74.1 66.1 74.5 66.3 74.7 66.4 74.9 66.4 75.1S66.3 75.6 66.1 75.7C65.9 75.9 65.8 76.2 65.8 76.5S65.9 77.1 66.1 77.3 66.4 77.7 66.4 77.9 66.3 78.4 66.1 78.5 65.6 78.8 65.4 78.8" fill="white"></path><path d="M21 65.4C20.8 65.4 20.5 65.3 20.4 65.1 19.9 64.6 19.2 64.6 18.8 65.1 18.4 65.5 17.9 65.5 17.5 65.1 17.3 64.9 17.2 64.7 17.2 64.5S17.3 64 17.5 63.9C17.7 63.7 17.8 63.4 17.8 63.1S17.7 62.5 17.5 62.3 17.2 61.9 17.2 61.7 17.3 61.2 17.5 61.1C17.9 60.7 18.4 60.7 18.8 61.1S20 61.5 20.4 61.1 21.3 60.7 21.7 61.1C21.9 61.3 22 61.5 22 61.7S21.9 62.2 21.7 62.3C21.2 62.8 21.2 63.5 21.7 63.9 21.9 64.1 22 64.3 22 64.5S21.9 65 21.7 65.1 21.3 65.4 21 65.4" fill="white"></path><path d="M54.4 76.5C54.2 76.5 53.9 76.4 53.8 76.2 53.4 75.8 52.6 75.8 52.2 76.2S51.3 76.6 50.9 76.2C50.7 76 50.6 75.8 50.6 75.6S50.7 75.1 50.9 75C51.4 74.5 51.4 73.8 50.9 73.4 50.7 73.2 50.6 73 50.6 72.8S50.7 72.3 50.9 72.2C51.3 71.8 51.8 71.8 52.2 72.2 52.7 72.7 53.4 72.7 53.8 72.2 54.2 71.8 54.7 71.8 55.1 72.2 55.3 72.4 55.4 72.6 55.4 72.8S55.3 73.3 55.1 73.4C54.6 73.9 54.6 74.6 55.1 75 55.3 75.2 55.4 75.4 55.4 75.6S55.3 76.1 55.1 76.2C54.8 76.4 54.6 76.5 54.4 76.5" fill="white"></path></svg></g></svg></g></svg></g><defs><mask></mask></defs><mask><g id="SvgjsG9179"><svg viewBox="0 0 395.52 60.61332353906385" height="60.61332353906385" width="395.52"><g><svg viewBox="0 0 519.2158553715909 79.56967695249298" height="60.61332353906385" width="395.52"><g><rect width="7.139975704957646" height="79.56967695249298" x="97.86484378978082" y="0" fill="black" opacity="1" stroke-width="0" stroke="transparent" fill-opacity="1" class="rect-yte-0" rx="1%" id="SvgjsRect9178" data-palette-color="url(#4e4da974-9185-4a84-96f5-eec83d7e04e0)"></rect></g><g transform="matrix(1,0,0,1,123.69585537159094,0.19793451978231502)"><svg viewBox="0 0 395.52 79.17380791292835" height="79.17380791292835" width="395.52"><g id="SvgjsG9177"><svg viewBox="0 0 395.52 79.17380791292835" height="79.17380791292835" width="395.52" id="SvgjsSvg9176"><g><svg viewBox="0 0 395.52 79.17380791292835" height="79.17380791292835" width="395.52"><g transform="matrix(1,0,0,1,0,0)"><svg width="395.52" viewBox="1.75 -33.48 169.96 34.029999999999994" height="79.17380791292835" data-palette-color="url(#4e4da974-9185-4a84-96f5-eec83d7e04e0)"><path d="M10.93 0.55L10.93 0.55Q7.98 0.55 5.78-0.09 3.58-0.73 2.13-1.48L2.13-1.48 1.75-5.23Q3.58-4.28 5.76-3.58 7.95-2.88 10.73-2.88L10.73-2.88Q13.55-2.88 14.98-3.78 16.4-4.67 16.4-6.45L16.4-6.45 16.4-6.73Q16.4-7.88 15.86-8.63 15.33-9.38 13.93-9.95 12.53-10.53 9.95-11.1L9.95-11.1Q6.88-11.78 5.1-12.69 3.33-13.6 2.56-14.95 1.8-16.3 1.8-18.25L1.8-18.25 1.8-18.48Q1.8-21.68 4.03-23.33 6.25-24.98 10.73-24.98L10.73-24.98Q13.6-24.98 15.71-24.33 17.82-23.68 19.18-22.88L19.18-22.88 19.55-19.45Q17.93-20.4 15.83-21.03 13.73-21.65 11.1-21.65L11.1-21.65Q9.2-21.65 8.03-21.26 6.85-20.88 6.33-20.16 5.8-19.45 5.8-18.45L5.8-18.45 5.8-18.25Q5.8-17.15 6.33-16.39 6.85-15.63 8.21-15.06 9.58-14.5 12-13.98L12-13.98Q15.13-13.35 16.96-12.48 18.8-11.6 19.6-10.26 20.4-8.93 20.4-6.83L20.4-6.83 20.4-6.4Q20.4-2.95 18-1.2 15.6 0.55 10.93 0.55ZM34.75 0.55L34.75 0.55Q29.5 0.55 26.93-2.29 24.37-5.13 24.37-10.33L24.37-10.33 24.37-14.13Q24.37-19.35 26.95-22.16 29.52-24.98 34.75-24.98L34.75-24.98Q36.3-24.98 37.57-24.69 38.85-24.4 39.86-23.94 40.87-23.48 41.57-22.98L41.57-22.98 41.92-19.45Q40.75-20.35 39.14-20.98 37.52-21.6 35.35-21.6L35.35-21.6Q31.85-21.6 30.13-19.66 28.42-17.73 28.42-14.03L28.42-14.03 28.42-10.43Q28.42-6.8 30.13-4.85 31.85-2.9 35.35-2.9L35.35-2.9Q37.6-2.9 39.23-3.53 40.87-4.15 42.15-5.05L42.15-5.05 41.77-1.48Q40.67-0.73 38.9-0.09 37.12 0.55 34.75 0.55ZM50.9-14.93L50.9-14.93 49.97-18.05 50.97-18.1Q51.77-21.2 53.72-22.99 55.67-24.78 58.9-24.78L58.9-24.78Q59.7-24.78 60.33-24.65 60.97-24.53 61.47-24.35L61.47-24.35 61.72-20.43Q61.1-20.63 60.33-20.75 59.57-20.88 58.65-20.88L58.65-20.88Q55.9-20.88 53.86-19.35 51.82-17.82 50.9-14.93ZM51.1 0L47.05 0 47.05-24.4 51-24.4 50.8-17.2 51.1-16.9 51.1 0ZM69.82 0L65.77 0 65.77-24.4 69.82-24.4 69.82 0ZM67.79-28.4L67.79-28.4Q66.54-28.4 65.93-29.06 65.32-29.73 65.32-30.88L65.32-30.88 65.32-31Q65.32-32.18 65.93-32.83 66.54-33.48 67.79-33.48L67.79-33.48Q69.04-33.48 69.67-32.83 70.29-32.18 70.29-31L70.29-31 70.29-30.88Q70.29-29.7 69.67-29.05 69.04-28.4 67.79-28.4ZM88.54 0.53L88.54 0.53Q86.29 0.53 84.63-0.23 82.97-0.98 81.94-2.38 80.92-3.78 80.57-5.63L80.57-5.63 79.22-5.63 80.44-9.43Q80.57-7.23 81.48-5.76 82.39-4.3 83.92-3.58 85.44-2.85 87.37-2.85L87.37-2.85Q90.42-2.85 92.03-4.65 93.64-6.45 93.64-10L93.64-10 93.64-14.58Q93.64-18.05 92.02-19.85 90.39-21.65 87.29-21.65L87.29-21.65Q85.44-21.65 84.02-20.93 82.59-20.2 81.65-18.95 80.72-17.7 80.37-16.1L80.37-16.1 79.44-18.93 80.59-18.93Q80.97-20.6 81.93-21.96 82.89-23.33 84.57-24.14 86.24-24.95 88.72-24.95L88.72-24.95Q93.12-24.95 95.42-22.21 97.72-19.48 97.72-14.28L97.72-14.28 97.72-10.23Q97.72-4.98 95.38-2.23 93.04 0.53 88.54 0.53ZM80.57 0L76.52 0 76.52-33.13 80.54-33.13 80.54-25.18 80.42-18.18 80.44-17.4 80.44-7.2 80.39-5.9 80.57 0ZM115.39 0.53L115.39 0.53Q113.14 0.53 111.48-0.23 109.81-0.98 108.79-2.38 107.76-3.78 107.41-5.63L107.41-5.63 106.06-5.63 107.29-9.43Q107.41-7.23 108.33-5.76 109.24-4.3 110.76-3.58 112.29-2.85 114.21-2.85L114.21-2.85Q117.26-2.85 118.88-4.65 120.49-6.45 120.49-10L120.49-10 120.49-14.58Q120.49-18.05 118.86-19.85 117.24-21.65 114.14-21.65L114.14-21.65Q112.29-21.65 110.86-20.93 109.44-20.2 108.5-18.95 107.56-17.7 107.21-16.1L107.21-16.1 106.29-18.93 107.44-18.93Q107.81-20.6 108.78-21.96 109.74-23.33 111.41-24.14 113.09-24.95 115.56-24.95L115.56-24.95Q119.96-24.95 122.26-22.21 124.56-19.48 124.56-14.28L124.56-14.28 124.56-10.23Q124.56-4.98 122.23-2.23 119.89 0.53 115.39 0.53ZM107.41 0L103.36 0 103.36-33.13 107.39-33.13 107.39-25.18 107.26-18.18 107.29-17.4 107.29-7.2 107.24-5.9 107.41 0ZM134.36 0L130.34 0 130.34-33.13 134.36-33.13 134.36 0ZM145.21 0L141.16 0 141.16-24.4 145.21-24.4 145.21 0ZM143.18-28.4L143.18-28.4Q141.93-28.4 141.32-29.06 140.71-29.73 140.71-30.88L140.71-30.88 140.71-31Q140.71-32.18 141.32-32.83 141.93-33.48 143.18-33.48L143.18-33.48Q144.43-33.48 145.06-32.83 145.68-32.18 145.68-31L145.68-31 145.68-30.88Q145.68-29.7 145.06-29.05 144.43-28.4 143.18-28.4ZM154.31 0L149.88 0 157.88-13.28 157.88-12.13 150.03-24.4 154.48-24.4 160.63-14.48 160.98-14.48 167.11-24.4 171.56-24.4 163.71-12.13 163.71-13.28 171.71 0 167.28 0 160.98-10.6 160.63-10.6 154.31 0Z" opacity="1" transform="matrix(1,0,0,1,0,0)" fill="black" class="wordmark-text-0" id="SvgjsPath9175"></path></svg></g></svg></g></svg></g></svg></g><g transform="matrix(1,0,0,1,0,0.19793451978231502)"><svg viewBox="0 0 79.17380791292835 79.17380791292835" height="79.17380791292835" width="79.17380791292835"><g><svg xmlns="http://www.w3.org/2000/svg" xmlns:xlink="http://www.w3.org/1999/xlink" version="1.1" x="0" y="0" viewBox="0 0 90 90" style="enable-background:new 0 0 90 90;" xml:space="preserve" height="79.17380791292835" width="79.17380791292835" class="icon-icon-0" data-fill-palette-color="accent" id="SvgjsSvg9174"><path d="M33.9 33.7C33.3 32.1 32.5 31.3 32.5 31.3 32 30.8 31.1 30.8 30.6 31.3S30.1 32.7 30.6 33.2C30.7 33.3 32.2 34.9 31.9 38.7 31.8 39.4 32.4 40.1 33.1 40.2H33.2C33.9 40.2 34.5 39.7 34.5 39 34.6 38.1 34.5 37.3 34.5 36.5 37.5 36.6 38.9 40.2 39 40.4 39.2 40.9 39.7 41.3 40.3 41.3 40.5 41.3 40.6 41.3 40.8 41.2 41.5 40.9 41.9 40.2 41.6 39.5 40.7 37.1 38.2 33.3 33.9 33.7" fill="black"></path><path d="M29.6 45.7C30 45.1 29.8 44.2 29.2 43.8S27.7 43.6 27.3 44.2C26.1 46.1 24.8 49.9 27.6 52.1 27.8 52.3 28.2 52.4 28.5 52.4 28.9 52.4 29.3 52.2 29.5 51.9 30 51.3 29.9 50.5 29.3 50 27.7 48.8 29.6 45.8 29.6 45.7" fill="black"></path><path d="M56.4 45.7C55.7 45.8 55.1 46.5 55.2 47.2 55.4 48.5 55.1 49.5 54.5 50.2 53.4 51.4 51.3 51.5 51.3 51.5 50.6 51.5 50 52.1 50 52.8S50.6 54.2 51.3 54.2C51.5 54.2 54.6 54.2 56.5 52 57.7 50.7 58.1 49 57.9 46.9 57.8 46.2 57.1 45.6 56.4 45.7" fill="black"></path><path d="M68 33.7C68.6 29.3 67.6 25.9 65.2 23.8 61.3 20.3 54.8 21.3 52.4 21.8 49.9 18.5 46.8 16.5 43.1 16 36.5 15.1 30.2 19.4 28.2 20.9 24.4 19.7 21.2 19.9 18.9 21.7 15.4 24.2 14.8 29 14.7 30.9 11.5 33.1 9.6 36.8 9.6 40.8 9.6 45.2 12 49.2 15.8 51.3L17.4 52.2C20.5 57.2 24.1 59.8 28.1 60 33.1 60.2 37.2 56.6 39.3 54.4 41.7 59.2 44.2 61.9 47.2 62.8 48 63 48.8 63.2 49.6 63.2 50.5 63.2 51.4 63.1 52.3 62.8 53.7 65.6 57.8 72.6 64.8 72.6 65.5 72.6 66.2 72.5 67 72.4 67.3 72.3 67.6 72.2 67.8 71.9 68.1 71.5 71 67.7 70.5 64.2 70.3 63.1 69.9 62.2 69.1 61.4 69.8 59.4 69.4 57.4 68.9 56.2 72.4 54.6 74.5 52.4 75.3 49.7 77.1 43.1 70 35.7 68 33.7M66.4 60.6C66 61.7 65 62.6 63.4 63.2 62.7 63.5 62.4 64.3 62.6 65 62.8 65.5 63.3 65.9 63.9 65.9 64.1 65.9 64.2 65.9 64.4 65.8 65.6 65.3 66.6 64.7 67.4 63.9 67.5 64.1 67.6 64.4 67.6 64.6 67.9 66.3 66.6 68.7 65.8 69.8 59.8 70.6 56 64.5 54.6 61.9 56.5 61.1 58.4 59.9 60.4 58.7 62.6 58.3 64.5 57.9 66.2 57.3 66.5 58.1 66.8 59.4 66.4 60.6M72.6 49C71.8 51.7 68.9 53.7 64 55.1 64.9 53.7 65.2 52.5 65.2 52.4 65.4 51.7 65 50.9 64.3 50.7S62.8 50.9 62.6 51.6C62.6 51.6 61.7 54.6 59.2 56.1 54.8 58.9 50.9 61.1 47.8 60.1 45.4 59.4 43.2 56.7 41 51.9L42.9 49.4C44.8 49.4 46.9 48.7 48.8 46.9 49.3 46.4 49.4 45.5 48.9 45S47.5 44.4 47 44.9C43.5 48.2 39.6 45.9 39.4 45.8 38.8 45.4 37.9 45.6 37.5 46.2S37.3 47.7 37.9 48.1C38.4 48.4 39 48.7 39.8 49L37.6 51.9C36.1 53.6 32.2 57.5 27.9 57.2 24.8 57.1 21.9 54.8 19.3 50.5 18.8 48.9 18.1 46.3 18 45.7 17.9 45 17.2 44.5 16.4 44.6 15.7 44.7 15.2 45.4 15.3 46.2 15.4 46.6 15.6 47.4 15.8 48.3 13.4 46.6 12 43.8 12 40.8 12 38.1 13.2 35.6 15.2 33.8 15.9 35 17 36.2 18.7 36.7 18.3 37.5 18 38.4 18 39.5 18 40.2 18.6 40.9 19.4 40.9S20.8 40.3 20.8 39.5C20.8 36.8 23.1 36.2 23.4 36.2 24.1 36.1 24.6 35.4 24.5 34.6 24.4 33.9 23.7 33.4 22.9 33.5 22.3 33.6 21.6 33.9 20.9 34.3 20.8 34.3 20.7 34.2 20.5 34.2 17.9 34.2 17.3 32 17.1 31.5 17.1 30.7 17.3 26 20.2 23.9 22 22.6 24.5 22.6 27.8 23.7 27.9 23.7 29.4 24.2 30.8 26.5 31.1 26.9 31.5 27.1 32 27.1 32.2 27.1 32.5 27 32.7 26.9 33.3 26.5 33.5 25.7 33.2 25 32.4 23.7 31.5 22.8 30.7 22.2 33.1 20.6 37.8 17.9 42.5 18.6 45.1 18.9 47.3 20.2 49.3 22.5 48.1 22.9 47 23.5 46.3 24.3 45 24.1 43.6 24.3 42.7 24.5 42 24.7 41.5 25.4 41.7 26.1S42.6 27.3 43.3 27.1C43.3 27.1 44.8 26.7 46.2 27 46.3 27.1 46.4 27.1 46.6 27.2H46.8C47.5 27.4 48.1 27.9 48.5 28.7 48.7 29.2 49.2 29.5 49.8 29.5 50 29.5 50.1 29.5 50.3 29.4 51 29.1 51.3 28.3 51.1 27.6 50.7 26.6 50.1 25.9 49.3 25.3 50 25 50.9 24.7 51.9 24.4H52S52.3 24.3 52.7 24.2H52.9C55 23.8 60.3 23 63.3 25.6 65.1 27.2 65.7 29.9 65.1 33.8 65.1 34 64.4 36.2 60.6 38.1 59.9 38.4 59.7 39.2 60 39.9 60.2 40.4 60.7 40.7 61.2 40.7 61.4 40.7 61.6 40.7 61.8 40.6 64.6 39.2 66.1 37.6 66.9 36.4 69.7 39.4 73.8 44.8 72.6 49" fill="black"></path><path d="M45 90C20.2 90 0 69.8 0 45S20.2 0 45 0 90 20.2 90 45 69.8 90 45 90M45 2.7C21.7 2.7 2.7 21.7 2.7 45S21.7 87.3 45 87.3 87.3 68.3 87.3 45 68.3 2.7 45 2.7" fill="black"></path><path d="M47 83.5C38.3 83.5 29.7 80.7 22.5 75.2 21.9 74.7 21.8 73.9 22.2 73.3S23.5 72.6 24.1 73C33.6 80.2 45.5 82.5 57 79.4 57.7 79.2 58.5 79.6 58.7 80.3S58.5 81.8 57.8 82C54.1 83 50.5 83.5 47 83.5" fill="black"></path><path d="M61.4 13.1C61.2 13.1 61 13 60.8 12.9 57.3 11 53.6 9.7 49.7 8.9 49 8.8 48.5 8.1 48.6 7.3 48.7 6.6 49.4 6.1 50.2 6.2 54.3 7 58.3 8.4 62.1 10.4 62.8 10.8 63 11.6 62.6 12.2 62.4 12.9 61.9 13.1 61.4 13.1" fill="black"></path><ellipse transform="matrix(0.9887 -0.1499 0.1499 0.9887 -1.3742 9.9907)" cx="65.6" cy="14.1" rx="1.8" ry="1.8" fill="black"></ellipse><path d="M45 11.5C44.8 11.5 44.5 11.4 44.4 11.2 43.2 10 41.1 10 39.8 11.2 39.4 11.6 38.9 11.6 38.5 11.2 38.3 11 38.2 10.8 38.2 10.6S38.3 10.1 38.5 10C39.1 9.4 39.4 8.6 39.4 7.7S39.1 6 38.5 5.4C38.3 5.2 38.2 5 38.2 4.8S38.3 4.3 38.5 4.2C38.9 3.8 39.4 3.8 39.8 4.2 41.1 5.5 43.1 5.5 44.4 4.2 44.8 3.8 45.3 3.8 45.7 4.2 45.9 4.4 46 4.6 46 4.8S45.9 5.3 45.7 5.4C44.4 6.7 44.4 8.7 45.7 10 45.9 10.2 46 10.4 46 10.6S45.9 11.1 45.7 11.2C45.5 11.4 45.2 11.5 45 11.5M42.1 8.5C42.4 8.5 42.7 8.5 43 8.6 42.9 8 42.9 7.4 43 6.8 42.4 6.9 41.8 6.9 41.2 6.8 41.3 7.1 41.3 7.4 41.3 7.7S41.3 8.3 41.2 8.6C41.5 8.5 41.8 8.5 42.1 8.5" fill="black"></path><path d="M30.2 71.8C30 71.8 29.7 71.7 29.6 71.5 28.3 70.2 26.3 70.2 25 71.5 24.6 71.9 24.1 71.9 23.7 71.5 23.5 71.3 23.4 71.1 23.4 70.9S23.5 70.4 23.7 70.3C25 69 25 67 23.7 65.7 23.5 65.5 23.4 65.3 23.4 65.1S23.5 64.6 23.7 64.5C24.1 64.1 24.6 64.1 25 64.5 26.3 65.8 28.3 65.8 29.6 64.5 30 64.1 30.5 64.1 30.9 64.5 31.1 64.7 31.2 64.9 31.2 65.1S31.1 65.6 30.9 65.7C29.6 67 29.6 69 30.9 70.3 31.1 70.5 31.2 70.7 31.2 70.9S31.1 71.4 30.9 71.5 30.5 71.8 30.2 71.8M26.4 67.1C26.5 67.7 26.5 68.3 26.4 68.9 27 68.8 27.6 68.8 28.2 68.9 28.1 68.3 28.1 67.7 28.2 67.1 27.6 67.2 27 67.2 26.4 67.1" fill="black"></path><path d="M19 73.6C18.8 73.6 18.5 73.5 18.4 73.3 17.9 72.8 17.2 72.8 16.8 73.3 16.4 73.7 15.9 73.7 15.5 73.3 15.3 73.1 15.2 72.9 15.2 72.7S15.3 72.2 15.5 72.1C16 71.6 16 70.9 15.5 70.5 15.3 70.3 15.2 70.1 15.2 69.9S15.3 69.4 15.5 69.3C15.9 68.9 16.4 68.9 16.8 69.3 17.3 69.8 18 69.8 18.4 69.3 18.8 68.9 19.3 68.9 19.7 69.3 19.9 69.5 20 69.7 20 69.9S19.9 70.4 19.7 70.5C19.2 71 19.2 71.7 19.7 72.1 19.9 72.3 20 72.5 20 72.7S19.9 73.2 19.7 73.3C19.5 73.5 19.2 73.6 19 73.6" fill="black"></path><path d="M65.4 78.8C65.2 78.8 64.9 78.7 64.8 78.5 64.3 78 63.6 78 63.2 78.5 62.8 78.9 62.3 78.9 61.9 78.5 61.7 78.3 61.6 78.1 61.6 77.9S61.7 77.4 61.9 77.3C62.1 77.1 62.2 76.8 62.2 76.5S62.1 75.9 61.9 75.7 61.6 75.3 61.6 75.1 61.7 74.6 61.9 74.5C62.3 74.1 62.8 74.1 63.2 74.5 63.7 74.9 64.4 75 64.8 74.5 65.2 74.1 65.7 74.1 66.1 74.5 66.3 74.7 66.4 74.9 66.4 75.1S66.3 75.6 66.1 75.7C65.9 75.9 65.8 76.2 65.8 76.5S65.9 77.1 66.1 77.3 66.4 77.7 66.4 77.9 66.3 78.4 66.1 78.5 65.6 78.8 65.4 78.8" fill="black"></path><path d="M21 65.4C20.8 65.4 20.5 65.3 20.4 65.1 19.9 64.6 19.2 64.6 18.8 65.1 18.4 65.5 17.9 65.5 17.5 65.1 17.3 64.9 17.2 64.7 17.2 64.5S17.3 64 17.5 63.9C17.7 63.7 17.8 63.4 17.8 63.1S17.7 62.5 17.5 62.3 17.2 61.9 17.2 61.7 17.3 61.2 17.5 61.1C17.9 60.7 18.4 60.7 18.8 61.1S20 61.5 20.4 61.1 21.3 60.7 21.7 61.1C21.9 61.3 22 61.5 22 61.7S21.9 62.2 21.7 62.3C21.2 62.8 21.2 63.5 21.7 63.9 21.9 64.1 22 64.3 22 64.5S21.9 65 21.7 65.1 21.3 65.4 21 65.4" fill="black"></path><path d="M54.4 76.5C54.2 76.5 53.9 76.4 53.8 76.2 53.4 75.8 52.6 75.8 52.2 76.2S51.3 76.6 50.9 76.2C50.7 76 50.6 75.8 50.6 75.6S50.7 75.1 50.9 75C51.4 74.5 51.4 73.8 50.9 73.4 50.7 73.2 50.6 73 50.6 72.8S50.7 72.3 50.9 72.2C51.3 71.8 51.8 71.8 52.2 72.2 52.7 72.7 53.4 72.7 53.8 72.2 54.2 71.8 54.7 71.8 55.1 72.2 55.3 72.4 55.4 72.6 55.4 72.8S55.3 73.3 55.1 73.4C54.6 73.9 54.6 74.6 55.1 75 55.3 75.2 55.4 75.4 55.4 75.6S55.3 76.1 55.1 76.2C54.8 76.4 54.6 76.5 54.4 76.5" fill="black"></path></svg></g></svg></g></svg></g><defs><mask></mask></defs></svg><rect width="395.52" height="60.61332353906385" fill="black" stroke="none" visibility="hidden"></rect></g></mask></svg><rect width="395.52" height="60.61332353906385" fill="black" stroke="none" visibility="hidden"></rect></g></mask><linearGradient x1="0.054" x2="0.941" y1="0.5" y2="0.5" id="958e79ce-bf76-4b3b-892d-83b52006c603"><stop stop-color="#8c8c8c" offset="0"></stop><stop stop-color="#e3e4e5" offset="0.498"></stop><stop stop-color="#8c8c8c" offset="1"></stop></linearGradient><rect width="395.52" height="60.61332353906385" fill="url(#958e79ce-bf76-4b3b-892d-83b52006c603)" mask="url(#cacfda56-cad1-4d5f-a1cd-bd1b523737cb)" data-fill-palette-color="accent"></rect></svg><rect width="395.52" height="60.61332353906385" fill="none" stroke="none" visibility="hidden"></rect></g></svg></g></svg>